<mxfile host="app.diagrams.net" modified="2024-02-01T00:57:16.526Z" agent="Mozilla/5.0 (Windows NT 10.0; Win64; x64) AppleWebKit/537.36 (KHTML, like Gecko) Chrome/120.0.0.0 Safari/537.36" version="23.1.0" etag="ZXPQTd-nI2H04aewMOAW" type="github">
  <diagram name="Page-1" id="E2W4GXe_fMSAwPjnHzlP">
    <mxGraphModel>
      <root>
        <mxCell id="0" />
        <mxCell id="1" parent="0" />
      </root>
    </mxGraphModel>
  </diagram>
</mxfile>
